<svg id="Layer_1" data-name="Layer 1" xmlns="http://www.w3.org/2000/svg" width="35" height="61" viewBox="0 0 35 61"><defs><style>.cls-1{fill:#fff;}</style></defs><path class="cls-1" d="M17.4886,6.1571h0A11.2414,11.2414,0,0,0,6.2472,17.3984v0a11.203,11.203,0,0,0,3.1041,7.7558L23.109,38.6711a7.4655,7.4655,0,0,1,1.8737,4.9574v0a7.4941,7.4941,0,0,1-7.4941,7.4941h0a7.4941,7.4941,0,0,1-7.4941-7.4941v0l0-7.37L6.2472,32.511V43.6287A11.2414,11.2414,0,0,0,17.4885,54.87h0A11.2414,11.2414,0,0,0,28.73,43.6287v0a11.2035,11.2035,0,0,0-3.1041-7.756L11.8681,22.356a7.4656,7.4656,0,0,1-1.8737-4.9573v0a7.4942,7.4942,0,0,1,7.4941-7.4942h0a7.4942,7.4942,0,0,1,7.4941,7.4942v0l0,7.542L28.73,28.688v-11.29A11.2414,11.2414,0,0,0,17.4886,6.1571Z"/><path class="cls-1" d="M34.35,35.4534a18.7891,18.7891,0,0,0-3.7626-5.2193l.0151-1.805V17.3984A13.1149,13.1149,0,0,0,17.4878,4.2836h0A13.1148,13.1148,0,0,0,4.3729,17.3984v0A13.0729,13.0729,0,0,0,8.12,26.5771L21.2351,39.439a5.6074,5.6074,0,0,1,1.8734,4.19v0a5.6206,5.6206,0,0,1-5.62,5.6207h0a5.6207,5.6207,0,0,1-5.6206-5.6207V38.131l3.747,3.747v1.6232l0,.1273a1.8736,1.8736,0,0,0,1.8735,1.8736h0A1.8735,1.8735,0,0,0,18.6756,42.18L6.2471,29.9675A16.82,16.82,0,0,1,.6259,17.3987v-.0005A16.8617,16.8617,0,0,1,17.4877.5366h0A16.8617,16.8617,0,0,1,34.35,17.3982V32.1763Z"/><path class="cls-1" d="M4.3731,35.0271v8.6476A13.1149,13.1149,0,0,0,17.4878,56.79h0A13.1148,13.1148,0,0,0,30.6027,43.6747v0a13.0727,13.0727,0,0,0-3.747-9.1784L13.7406,21.6342a5.6077,5.6077,0,0,1-1.8734-4.19v0a5.6206,5.6206,0,0,1,5.6205-5.6207h0a5.6207,5.6207,0,0,1,5.6207,5.6207v5.6222l-3.747-3.747V17.5719l0-.1273a1.8735,1.8735,0,0,0-1.8735-1.8736h0A1.8735,1.8735,0,0,0,16.3,18.8935L28.7286,31.1056A16.82,16.82,0,0,1,34.35,43.6744v.0005A16.8617,16.8617,0,0,1,17.488,60.5366h0A16.8619,16.8619,0,0,1,.6259,43.6749V29.9167l0-4.3428A18.7893,18.7893,0,0,0,4.388,30.7932Z"/></svg>